HIERARCHY
ROOT Hips
{
	OFFSET 53.204899 -7.350234 85.795700
	CHANNELS 6 Xposition Yposition Zposition Xrotation Yrotation Zrotation
	JOINT spine
	{
		OFFSET 0.000000 -0.367607 6.392601
		CHANNELS 3 Xrotation Yrotation Zrotation
		JOINT spine1
		{
			OFFSET 0.000000 -0.000002 9.176109
			CHANNELS 3 Xrotation Yrotation Zrotation
			JOINT spine2
			{
				OFFSET 0.000000 -0.000001 8.792381
				CHANNELS 3 Xrotation Yrotation Zrotation
				JOINT Neck
				{
					OFFSET 0.000000 -1.076244 22.573708
					CHANNELS 3 Xrotation Yrotation Zrotation
					JOINT Head
					{
						OFFSET 0.000000 -0.000001 6.820114
						CHANNELS 3 Xrotation Yrotation Zrotation
						End Site
						{
							OFFSET 0.000000 5.444267 16.508499
						}
					}
				}
				JOINT RightShoulder
				{
					OFFSET -3.702209 0.515507 9.495087
					CHANNELS 3 Xrotation Yrotation Zrotation
					JOINT RightArm
					{
						OFFSET 0.000000 -0.000002 12.453697
						CHANNELS 3 Xrotation Yrotation Zrotation
						JOINT RightArmRoll
						{
							OFFSET 0.000000 -0.000001 6.286865
							CHANNELS 3 Xrotation Yrotation Zrotation
							JOINT RightForeArm
							{
								OFFSET 0.000000 -0.000003 18.311401
								CHANNELS 3 Xrotation Yrotation Zrotation
								JOINT RightForeArmRoll
								{
									OFFSET 0.000000 -0.000001 7.054825
									CHANNELS 3 Xrotation Yrotation Zrotation
									JOINT RightHand
									{
										OFFSET 0.000000 -0.000002 14.157501
										CHANNELS 3 Xrotation Yrotation Zrotation
										End Site
										{
											OFFSET 0.000000 0.000000 0.100006
										}
									}
								}
							}
						}
					}
				}
				JOINT LeftShoulder
				{
					OFFSET 3.702209 0.515507 9.495087
					CHANNELS 3 Xrotation Yrotation Zrotation
					JOINT LeftArm
					{
						OFFSET 0.000000 -0.000002 12.453697
						CHANNELS 3 Xrotation Yrotation Zrotation
						JOINT LeftArmRoll
						{
							OFFSET 0.000000 -0.000001 6.286850
							CHANNELS 3 Xrotation Yrotation Zrotation
							JOINT LeftForeArm
							{
								OFFSET 0.000000 -0.000003 18.311401
								CHANNELS 3 Xrotation Yrotation Zrotation
								JOINT LeftForeArmRoll
								{
									OFFSET 0.000000 -0.000001 7.054825
									CHANNELS 3 Xrotation Yrotation Zrotation
									JOINT LeftHand
									{
										OFFSET 0.000000 -0.000002 14.157501
										CHANNELS 3 Xrotation Yrotation Zrotation
										End Site
										{
											OFFSET 0.000000 0.000000 0.100006
										}
									}
								}
							}
						}
					}
				}
			}
		}
	}
	JOINT RightUpLeg
	{
		OFFSET -5.666161 0.871610 -1.039032
		CHANNELS 3 Xrotation Yrotation Zrotation
		JOINT RightUpLegRoll
		{
			OFFSET 0.000000 -0.000003 16.600502
			CHANNELS 3 Xrotation Yrotation Zrotation
			JOINT RightLeg
			{
				OFFSET 0.000000 0.000003 -20.557198
				CHANNELS 3 Xrotation Yrotation Zrotation
				JOINT RightLegRoll
				{
					OFFSET 0.000000 -0.000003 20.624397
					CHANNELS 3 Xrotation Yrotation Zrotation
					JOINT RightFoot
					{
						OFFSET 0.000000 -0.000003 17.166405
						CHANNELS 3 Xrotation Yrotation Zrotation
						JOINT RightToeBase
						{
							OFFSET 0.000000 -0.000002 14.350204
							CHANNELS 3 Xrotation Yrotation Zrotation
							End Site
							{
								OFFSET 0.006081 0.801060 6.949707
							}
						}
					}
				}
			}
		}
	}
	JOINT LeftUpLeg
	{
		OFFSET 5.666161 0.871610 -1.039032
		CHANNELS 3 Xrotation Yrotation Zrotation
		JOINT LeftUpLegRoll
		{
			OFFSET 0.000000 -0.000003 16.600601
			CHANNELS 3 Xrotation Yrotation Zrotation
			JOINT LeftLeg
			{
				OFFSET 0.000000 -0.000003 20.557098
				CHANNELS 3 Xrotation Yrotation Zrotation
				JOINT LeftLegRoll
				{
					OFFSET 0.000000 -0.000003 20.815094
					CHANNELS 3 Xrotation Yrotation Zrotation
					JOINT LeftFoot
					{
						OFFSET 0.000000 -0.000003 16.975708
						CHANNELS 3 Xrotation Yrotation Zrotation
						JOINT LeftToeBase
						{
							OFFSET 0.000000 -0.000002 14.350204
							CHANNELS 3 Xrotation Yrotation Zrotation
							End Site
							{
								OFFSET -0.027260 0.801060 6.949707
							}
						}
					}
				}
			}
		}
	}
}
MOTION
Frames: 4
Frame Time: 0.041667
52.519901 -7.452451 85.743492 -3.994542 2.152214 0.003797 -1.240270 0.226370 -0.063218 1.523038 0.453468 -0.144969 3.168139 0.451702 -0.150391 7.800097 -3.461434 0.283501 0.734582 2.089858 0.584553 -6.739414 -62.250515 -8.194046 -43.169162 -114.542020 -35.134497 -0.000005 0.000006 -0.000008 5.043696 -13.033983 0.099733 -0.000001 -0.000018 -3.000000 -5.000219 -7.998695 0.000174 -2.861769 54.419676 2.862907 -33.007063 116.263808 30.247090 -0.000002 0.000001 0.000003 4.034888 10.810980 0.136326 -0.000003 0.000010 3.003010 -5.000233 7.998735 -0.000163 3.599863 -177.029856 -0.212284 -179.999991 0.000005 -1.216001 174.977098 -1.609802 -0.470474 0.000000 -0.000003 0.041338 68.924675 6.951455 1.969637 25.456856 -7.355622 -0.000002 2.658410 171.315201 -2.577666 -0.000005 -0.000005 -1.123410 -7.659910 1.646276 0.651821 -0.000006 0.000001 -0.067511 70.308294 -6.512056 -3.055274 25.458176 7.355623 -0.001794 
52.508701 -7.448236 85.742599 -4.009835 2.145610 0.001838 -1.237852 0.227950 -0.063468 1.528369 0.456490 -0.143489 3.173470 0.454739 -0.148945 7.807148 -3.453746 0.290861 0.736027 2.082508 0.591314 -6.739587 -62.257434 -8.194753 -43.183021 -114.529268 -35.153812 -0.000003 0.000006 -0.000006 5.065547 -13.036945 0.102314 -0.000001 -0.000018 -3.000001 -5.000221 -7.998694 0.000173 -2.864512 54.422510 2.866525 -33.012469 116.264067 30.252359 -0.000001 0.000001 0.000003 4.044653 10.809452 0.135090 -0.000003 0.000010 3.003010 -5.000231 7.998735 -0.000163 3.614786 -177.021933 -0.213992 -179.999991 0.000005 -1.216001 174.982220 -1.594873 -0.470016 0.000001 -0.000003 0.041338 68.927100 6.951414 1.968477 25.456856 -7.355622 -0.000002 2.700708 171.331498 -2.571507 -0.000005 -0.000005 -1.125290 -7.611156 1.639822 0.648495 -0.000005 0.000001 -0.067449 70.289511 -6.518709 -3.038237 25.458169 7.355623 -0.001795 
52.549896 -7.488553 85.748291 -4.025570 2.138706 -0.000240 -1.235371 0.229569 -0.063729 1.533860 0.459585 -0.141947 3.178961 0.457850 -0.147440 7.814820 -3.445262 0.298618 0.736661 2.074428 0.598430 -6.739395 -62.264080 -8.195014 -43.196872 -114.516529 -35.173603 -0.000004 0.000005 -0.000007 5.086560 -13.040320 0.104873 -0.000001 -0.000018 -3.000001 -5.000221 -7.998694 0.000173 -2.867092 54.424955 2.869905 -33.017152 116.265283 30.257338 0.000001 0.000001 0.000003 4.053700 10.808237 0.133858 -0.000004 0.000010 3.003011 -5.000233 7.998733 -0.000163 3.630164 -177.013997 -0.216129 -179.999991 0.000005 -1.216998 174.987725 -1.577943 -0.470372 0.000000 -0.000003 0.041338 68.929641 6.951450 1.967124 25.456858 -7.355621 -0.000001 2.745031 171.348792 -2.564843 -0.000005 -0.000005 -1.127280 -7.559607 1.632921 0.644987 -0.000006 0.000001 -0.067399 70.269697 -6.525801 -3.020134 25.458173 7.355623 -0.001794 
52.539299 -7.476533 85.747696 -4.041612 2.131590 -0.002400 -1.232850 0.231219 -0.063997 1.539470 0.462730 -0.140363 3.184574 0.461013 -0.145891 7.822940 -3.436228 0.306657 0.736725 2.065849 0.605794 -6.738986 -62.270623 -8.195006 -43.210738 -114.503798 -35.193776 -0.000006 0.000006 -0.000007 5.106984 -13.043906 0.107398 0.000000 -0.000018 -3.000000 -5.000222 -7.998694 0.000173 -2.869537 54.427192 2.873105 -33.022042 116.266540 30.262926 -0.000002 0.000001 0.000003 4.062218 10.807228 0.132637 -0.000003 0.000010 3.003010 -5.000232 7.998734 -0.000163 3.645846 -177.005063 -0.218502 -179.999991 0.000005 -1.217996 174.993490 -1.560022 -0.470651 -0.000000 -0.000003 0.041338 68.932386 6.951426 1.965747 25.456860 -7.355622 -0.000002 2.790778 171.366099 -2.557835 -0.000005 -0.000005 -1.129350 -7.506088 1.625706 0.641358 -0.000006 0.000002 -0.067356 70.249233 -6.533137 -3.001320 25.458173 7.355623 -0.001794 
